name rise44.8762peak52.3436fall86.788.mot
datacolumns 19
datarows 21
range 11.58329200000000 11.61663800000000
endheader
time	ground_force1_vx	ground_force1_vy	ground_force1_vz	ground_force1_px	ground_force1_py	ground_force1_pz	ground_force2_vx	ground_force2_vy	ground_force2_vz	ground_force2_px	ground_force2_py	ground_force2_pz	ground_torque1_x	ground_torque1_y	ground_torque1_z	ground_torque2_x	ground_torque2_y	ground_torque2_z	
11.58329200000000	5.23572500000000	713.37576600000000	42.94044600000000	0.16227700000000	0.00000000000000	0.12085800000000	0.00000000000000	0.00000000000000	0.00000000000000	0.00000000000000	0.00000000000000	0.00000000000000	0.00000000000000	12.24613000000000	0.00000000000000	0.00000000000000	0.00000000000000	0.00000000000000	
11.58495200000000	4.73209600000000	714.67866400000003	43.05255900000000	0.16118700000000	0.00000000000000	0.12085600000000	0.00000000000000	0.00000000000000	0.00000000000000	0.00000000000000	0.00000000000000	0.00000000000000	0.00000000000000	12.34634000000000	0.00000000000000	0.00000000000000	0.00000000000000	0.00000000000000	
11.58663700000000	4.21433600000000	715.99013100000002	43.16748000000000	0.16008500000000	0.00000000000000	0.12085400000000	0.00000000000000	0.00000000000000	0.00000000000000	0.00000000000000	0.00000000000000	0.00000000000000	0.00000000000000	12.45058500000000	0.00000000000000	0.00000000000000	0.00000000000000	0.00000000000000	
11.58829100000000	3.68253200000000	717.30897900000002	43.28494500000000	0.15897100000000	0.00000000000000	0.12085300000000	0.00000000000000	0.00000000000000	0.00000000000000	0.00000000000000	0.00000000000000	0.00000000000000	0.00000000000000	12.55876400000000	0.00000000000000	0.00000000000000	0.00000000000000	0.00000000000000	
11.58995800000000	3.13681500000000	718.63413100000002	43.40470300000000	0.15784500000000	0.00000000000000	0.12085100000000	0.00000000000000	0.00000000000000	0.00000000000000	0.00000000000000	0.00000000000000	0.00000000000000	0.00000000000000	12.67076800000000	0.00000000000000	0.00000000000000	0.00000000000000	0.00000000000000	
11.59162500000000	2.57736100000000	719.96462099999997	43.52651300000000	0.15671100000000	0.00000000000000	0.12084800000000	0.00000000000000	0.00000000000000	0.00000000000000	0.00000000000000	0.00000000000000	0.00000000000000	0.00000000000000	12.78648700000000	0.00000000000000	0.00000000000000	0.00000000000000	0.00000000000000	
11.59329600000000	2.00439100000000	721.29959699999995	43.65014600000000	0.15556800000000	0.00000000000000	0.12084600000000	0.00000000000000	0.00000000000000	0.00000000000000	0.00000000000000	0.00000000000000	0.00000000000000	0.00000000000000	12.90580100000000	0.00000000000000	0.00000000000000	0.00000000000000	0.00000000000000	
11.59495400000000	1.41816700000000	722.63831200000004	43.77538600000000	0.15441800000000	0.00000000000000	0.12084300000000	0.00000000000000	0.00000000000000	0.00000000000000	0.00000000000000	0.00000000000000	0.00000000000000	0.00000000000000	13.02858800000000	0.00000000000000	0.00000000000000	0.00000000000000	0.00000000000000	
11.59662500000000	0.81898900000000	723.98013100000003	43.90203200000000	0.15326200000000	0.00000000000000	0.12083900000000	0.00000000000000	0.00000000000000	0.00000000000000	0.00000000000000	0.00000000000000	0.00000000000000	0.00000000000000	13.15472000000000	0.00000000000000	0.00000000000000	0.00000000000000	0.00000000000000	
11.59829000000000	0.20720100000000	725.32452200000000	44.02989300000000	0.15210100000000	0.00000000000000	0.12083500000000	0.00000000000000	0.00000000000000	0.00000000000000	0.00000000000000	0.00000000000000	0.00000000000000	0.00000000000000	13.28406300000000	0.00000000000000	0.00000000000000	0.00000000000000	0.00000000000000	
11.59995700000000	-0.41681900000000	726.67105400000003	44.15879700000000	0.15093700000000	0.00000000000000	0.12083100000000	0.00000000000000	0.00000000000000	0.00000000000000	0.00000000000000	0.00000000000000	0.00000000000000	0.00000000000000	13.41647900000000	0.00000000000000	0.00000000000000	0.00000000000000	0.00000000000000	
11.60162800000000	-1.05265600000000	728.01939600000003	44.28858200000000	0.14977100000000	0.00000000000000	0.12082600000000	0.00000000000000	0.00000000000000	0.00000000000000	0.00000000000000	0.00000000000000	0.00000000000000	0.00000000000000	13.55182600000000	0.00000000000000	0.00000000000000	0.00000000000000	0.00000000000000	
11.60329100000000	-1.69985900000000	729.36931200000004	44.41910300000000	0.14860400000000	0.00000000000000	0.12082000000000	0.00000000000000	0.00000000000000	0.00000000000000	0.00000000000000	0.00000000000000	0.00000000000000	0.00000000000000	13.68995500000000	0.00000000000000	0.00000000000000	0.00000000000000	0.00000000000000	
11.60495100000000	-2.35794800000000	730.72065399999997	44.55022900000000	0.14743700000000	0.00000000000000	0.12081300000000	0.00000000000000	0.00000000000000	0.00000000000000	0.00000000000000	0.00000000000000	0.00000000000000	0.00000000000000	13.83071300000000	0.00000000000000	0.00000000000000	0.00000000000000	0.00000000000000	
11.60662200000000	-3.02640800000000	732.07335899999998	44.68184500000000	0.14627200000000	0.00000000000000	0.12080600000000	0.00000000000000	0.00000000000000	0.00000000000000	0.00000000000000	0.00000000000000	0.00000000000000	0.00000000000000	13.97394400000000	0.00000000000000	0.00000000000000	0.00000000000000	0.00000000000000	
11.60828600000000	-3.70469800000000	733.42744500000003	44.81384900000000	0.14510900000000	0.00000000000000	0.12079800000000	0.00000000000000	0.00000000000000	0.00000000000000	0.00000000000000	0.00000000000000	0.00000000000000	0.00000000000000	14.11948500000000	0.00000000000000	0.00000000000000	0.00000000000000	0.00000000000000	
11.60995700000000	-4.39224900000000	734.78300000000002	44.94615600000000	0.14394900000000	0.00000000000000	0.12078900000000	0.00000000000000	0.00000000000000	0.00000000000000	0.00000000000000	0.00000000000000	0.00000000000000	0.00000000000000	14.26717000000000	0.00000000000000	0.00000000000000	0.00000000000000	0.00000000000000	
11.61162200000000	-5.08846500000000	736.14018399999998	45.07869400000000	0.14279400000000	0.00000000000000	0.12077900000000	0.00000000000000	0.00000000000000	0.00000000000000	0.00000000000000	0.00000000000000	0.00000000000000	0.00000000000000	14.41682800000000	0.00000000000000	0.00000000000000	0.00000000000000	0.00000000000000	
11.61329200000000	-5.79273000000000	737.49921200000006	45.21140600000000	0.14164500000000	0.00000000000000	0.12076800000000	0.00000000000000	0.00000000000000	0.00000000000000	0.00000000000000	0.00000000000000	0.00000000000000	0.00000000000000	14.56828500000000	0.00000000000000	0.00000000000000	0.00000000000000	0.00000000000000	
11.61495200000000	-6.50440300000000	738.86035700000002	45.34424900000000	0.14050100000000	0.00000000000000	0.12075700000000	0.00000000000000	0.00000000000000	0.00000000000000	0.00000000000000	0.00000000000000	0.00000000000000	0.00000000000000	14.72136200000000	0.00000000000000	0.00000000000000	0.00000000000000	0.00000000000000	
11.61663800000000	-7.22282600000000	740.22393599999998	45.47719500000000	0.13936500000000	0.00000000000000	0.12074400000000	0.00000000000000	0.00000000000000	0.00000000000000	0.00000000000000	0.00000000000000	0.00000000000000	0.00000000000000	14.87587600000000	0.00000000000000	0.00000000000000	0.00000000000000	0.00000000000000	
